<?xml version="1.0" encoding="UTF-8" standalone="no"?>
<!DOCTYPE svg PUBLIC "-//W3C//DTD SVG 1.1//EN"
 "http://www.w3.org/Graphics/SVG/1.1/DTD/svg11.dtd">
<!-- Generated by graphviz version 2.47.3 (20210619.1520)
 -->
<!-- Title: dependencies Pages: 1 -->
<svg width="2196pt" height="247pt"
 viewBox="0.00 0.00 2196.00 246.80" xmlns="http://www.w3.org/2000/svg" xmlns:xlink="http://www.w3.org/1999/xlink">
<g id="graph0" class="graph" transform="scale(1 1) rotate(0) translate(4 242.8)">
<title>dependencies</title>
<polygon fill="white" stroke="transparent" points="-4,4 -4,-242.8 2192,-242.8 2192,4 -4,4"/>
<text text-anchor="middle" x="1094" y="-8.2" font-family="sans-serif" font-size="14.00">dependencies</text>
<g id="clust1" class="cluster">
<title>cluster_AppModule</title>
<polygon fill="none" stroke="black" stroke-dasharray="1,5" points="8,-32.8 8,-230.8 2180,-230.8 2180,-32.8 8,-32.8"/>
</g>
<g id="clust2" class="cluster">
<title>cluster_AppModule_declarations</title>
<polygon fill="none" stroke="black" points="364,-40.8 364,-92.8 2172,-92.8 2172,-40.8 364,-40.8"/>
</g>
<g id="clust14" class="cluster">
<title>cluster_AppModule_imports</title>
<polygon fill="none" stroke="black" points="212,-40.8 212,-92.8 356,-92.8 356,-40.8 212,-40.8"/>
</g>
<g id="clust16" class="cluster">
<title>cluster_AppModule_bootstrap</title>
<polygon fill="none" stroke="black" points="1065,-170.8 1065,-222.8 1189,-222.8 1189,-170.8 1065,-170.8"/>
</g>
<g id="clust17" class="cluster">
<title>cluster_AppModule_providers</title>
<polygon fill="none" stroke="black" points="16,-40.8 16,-92.8 204,-92.8 204,-40.8 16,-40.8"/>
</g>
<!-- AppComponent -->
<g id="node1" class="node">
<title>AppComponent</title>
<polygon fill="#ffffb3" stroke="black" points="2163.94,-84.8 2058.06,-84.8 2058.06,-48.8 2163.94,-48.8 2163.94,-84.8"/>
<text text-anchor="middle" x="2111" y="-62.6" font-family="Times,serif" font-size="14.00">AppComponent</text>
</g>
<!-- AppModule -->
<g id="node12" class="node">
<title>AppModule</title>
<polygon fill="#8dd3c7" stroke="black" points="1168.66,-149.8 1165.66,-153.8 1144.66,-153.8 1141.66,-149.8 1085.34,-149.8 1085.34,-113.8 1168.66,-113.8 1168.66,-149.8"/>
<text text-anchor="middle" x="1127" y="-127.6" font-family="Times,serif" font-size="14.00">AppModule</text>
</g>
<!-- AppComponent&#45;&gt;AppModule -->
<g id="edge1" class="edge">
<title>AppComponent&#45;&gt;AppModule</title>
<path fill="none" stroke="black" d="M2111,-84.89C2111,-107.93 2111,-144.8 2111,-144.8 2111,-144.8 1178.97,-144.8 1178.97,-144.8"/>
<polygon fill="black" stroke="black" points="1178.97,-141.3 1168.97,-144.8 1178.97,-148.3 1178.97,-141.3"/>
</g>
<!-- CurrencySymbolComponent -->
<g id="node2" class="node">
<title>CurrencySymbolComponent</title>
<polygon fill="#ffffb3" stroke="black" points="2040.48,-84.8 1863.52,-84.8 1863.52,-48.8 2040.48,-48.8 2040.48,-84.8"/>
<text text-anchor="middle" x="1952" y="-62.6" font-family="Times,serif" font-size="14.00">CurrencySymbolComponent</text>
</g>
<!-- CurrencySymbolComponent&#45;&gt;AppModule -->
<g id="edge2" class="edge">
<title>CurrencySymbolComponent&#45;&gt;AppModule</title>
<path fill="none" stroke="black" d="M1952,-84.84C1952,-106.46 1952,-139.8 1952,-139.8 1952,-139.8 1178.76,-139.8 1178.76,-139.8"/>
<polygon fill="black" stroke="black" points="1178.76,-136.3 1168.76,-139.8 1178.76,-143.3 1178.76,-136.3"/>
</g>
<!-- DailyRevenuesComponent -->
<g id="node3" class="node">
<title>DailyRevenuesComponent</title>
<polygon fill="#ffffb3" stroke="black" points="1845.36,-84.8 1678.64,-84.8 1678.64,-48.8 1845.36,-48.8 1845.36,-84.8"/>
<text text-anchor="middle" x="1762" y="-62.6" font-family="Times,serif" font-size="14.00">DailyRevenuesComponent</text>
</g>
<!-- DailyRevenuesComponent&#45;&gt;AppModule -->
<g id="edge3" class="edge">
<title>DailyRevenuesComponent&#45;&gt;AppModule</title>
<path fill="none" stroke="black" d="M1762,-85.02C1762,-105.17 1762,-134.8 1762,-134.8 1762,-134.8 1178.66,-134.8 1178.66,-134.8"/>
<polygon fill="black" stroke="black" points="1178.66,-131.3 1168.66,-134.8 1178.66,-138.3 1178.66,-131.3"/>
</g>
<!-- DropdownButtonComponent -->
<g id="node4" class="node">
<title>DropdownButtonComponent</title>
<polygon fill="#ffffb3" stroke="black" points="1660.82,-84.8 1481.18,-84.8 1481.18,-48.8 1660.82,-48.8 1660.82,-84.8"/>
<text text-anchor="middle" x="1571" y="-62.6" font-family="Times,serif" font-size="14.00">DropdownButtonComponent</text>
</g>
<!-- DropdownButtonComponent&#45;&gt;AppModule -->
<g id="edge4" class="edge">
<title>DropdownButtonComponent&#45;&gt;AppModule</title>
<path fill="none" stroke="black" d="M1571,-85.02C1571,-103.63 1571,-129.8 1571,-129.8 1571,-129.8 1178.77,-129.8 1178.77,-129.8"/>
<polygon fill="black" stroke="black" points="1178.77,-126.3 1168.77,-129.8 1178.77,-133.3 1178.77,-126.3"/>
</g>
<!-- HeaderComponent -->
<g id="node5" class="node">
<title>HeaderComponent</title>
<polygon fill="#ffffb3" stroke="black" points="1462.74,-84.8 1341.26,-84.8 1341.26,-48.8 1462.74,-48.8 1462.74,-84.8"/>
<text text-anchor="middle" x="1402" y="-62.6" font-family="Times,serif" font-size="14.00">HeaderComponent</text>
</g>
<!-- HeaderComponent&#45;&gt;AppModule -->
<g id="edge5" class="edge">
<title>HeaderComponent&#45;&gt;AppModule</title>
<path fill="none" stroke="black" d="M1402,-84.83C1402,-101.86 1402,-124.8 1402,-124.8 1402,-124.8 1178.77,-124.8 1178.77,-124.8"/>
<polygon fill="black" stroke="black" points="1178.77,-121.3 1168.77,-124.8 1178.77,-128.3 1178.77,-121.3"/>
</g>
<!-- LogInComponent -->
<g id="node6" class="node">
<title>LogInComponent</title>
<polygon fill="#ffffb3" stroke="black" points="1322.55,-84.8 1207.45,-84.8 1207.45,-48.8 1322.55,-48.8 1322.55,-84.8"/>
<text text-anchor="middle" x="1265" y="-62.6" font-family="Times,serif" font-size="14.00">LogInComponent</text>
</g>
<!-- LogInComponent&#45;&gt;AppModule -->
<g id="edge6" class="edge">
<title>LogInComponent&#45;&gt;AppModule</title>
<path fill="none" stroke="black" d="M1265,-85.04C1265,-100.37 1265,-119.8 1265,-119.8 1265,-119.8 1178.78,-119.8 1178.78,-119.8"/>
<polygon fill="black" stroke="black" points="1178.78,-116.3 1168.78,-119.8 1178.78,-123.3 1178.78,-116.3"/>
</g>
<!-- LogOutComponent -->
<g id="node7" class="node">
<title>LogOutComponent</title>
<polygon fill="#ffffb3" stroke="black" points="1189.38,-84.8 1064.62,-84.8 1064.62,-48.8 1189.38,-48.8 1189.38,-84.8"/>
<text text-anchor="middle" x="1127" y="-62.6" font-family="Times,serif" font-size="14.00">LogOutComponent</text>
</g>
<!-- LogOutComponent&#45;&gt;AppModule -->
<g id="edge7" class="edge">
<title>LogOutComponent&#45;&gt;AppModule</title>
<path fill="none" stroke="black" d="M1127,-84.91C1127,-84.91 1127,-103.79 1127,-103.79"/>
<polygon fill="black" stroke="black" points="1123.5,-103.79 1127,-113.79 1130.5,-103.79 1123.5,-103.79"/>
</g>
<!-- MainPageComponent -->
<g id="node8" class="node">
<title>MainPageComponent</title>
<polygon fill="#ffffb3" stroke="black" points="1047.09,-84.8 908.91,-84.8 908.91,-48.8 1047.09,-48.8 1047.09,-84.8"/>
<text text-anchor="middle" x="978" y="-62.6" font-family="Times,serif" font-size="14.00">MainPageComponent</text>
</g>
<!-- MainPageComponent&#45;&gt;AppModule -->
<g id="edge8" class="edge">
<title>MainPageComponent&#45;&gt;AppModule</title>
<path fill="none" stroke="black" d="M978,-85.04C978,-100.37 978,-119.8 978,-119.8 978,-119.8 1075.1,-119.8 1075.1,-119.8"/>
<polygon fill="black" stroke="black" points="1075.1,-123.3 1085.1,-119.8 1075.1,-116.3 1075.1,-123.3"/>
</g>
<!-- RevenuesTableComponent -->
<g id="node9" class="node">
<title>RevenuesTableComponent</title>
<polygon fill="#ffffb3" stroke="black" points="890.63,-84.8 723.37,-84.8 723.37,-48.8 890.63,-48.8 890.63,-84.8"/>
<text text-anchor="middle" x="807" y="-62.6" font-family="Times,serif" font-size="14.00">RevenuesTableComponent</text>
</g>
<!-- RevenuesTableComponent&#45;&gt;AppModule -->
<g id="edge9" class="edge">
<title>RevenuesTableComponent&#45;&gt;AppModule</title>
<path fill="none" stroke="black" d="M807,-84.83C807,-101.86 807,-124.8 807,-124.8 807,-124.8 1075.17,-124.8 1075.17,-124.8"/>
<polygon fill="black" stroke="black" points="1075.17,-128.3 1085.17,-124.8 1075.17,-121.3 1075.17,-128.3"/>
</g>
<!-- UserSettingsComponent -->
<g id="node10" class="node">
<title>UserSettingsComponent</title>
<polygon fill="#ffffb3" stroke="black" points="705.37,-84.8 552.63,-84.8 552.63,-48.8 705.37,-48.8 705.37,-84.8"/>
<text text-anchor="middle" x="629" y="-62.6" font-family="Times,serif" font-size="14.00">UserSettingsComponent</text>
</g>
<!-- UserSettingsComponent&#45;&gt;AppModule -->
<g id="edge10" class="edge">
<title>UserSettingsComponent&#45;&gt;AppModule</title>
<path fill="none" stroke="black" d="M629,-85.02C629,-103.63 629,-129.8 629,-129.8 629,-129.8 1074.97,-129.8 1074.97,-129.8"/>
<polygon fill="black" stroke="black" points="1074.97,-133.3 1084.97,-129.8 1074.97,-126.3 1074.97,-133.3"/>
</g>
<!-- WelcomePageComponent -->
<g id="node11" class="node">
<title>WelcomePageComponent</title>
<polygon fill="#ffffb3" stroke="black" points="534.18,-84.8 371.82,-84.8 371.82,-48.8 534.18,-48.8 534.18,-84.8"/>
<text text-anchor="middle" x="453" y="-62.6" font-family="Times,serif" font-size="14.00">WelcomePageComponent</text>
</g>
<!-- WelcomePageComponent&#45;&gt;AppModule -->
<g id="edge11" class="edge">
<title>WelcomePageComponent&#45;&gt;AppModule</title>
<path fill="none" stroke="black" d="M453,-85.02C453,-105.17 453,-134.8 453,-134.8 453,-134.8 1075.09,-134.8 1075.09,-134.8"/>
<polygon fill="black" stroke="black" points="1075.09,-138.3 1085.09,-134.8 1075.09,-131.3 1075.09,-138.3"/>
</g>
<!-- AppComponent  -->
<g id="node14" class="node">
<title>AppComponent </title>
<polygon fill="#80b1d3" stroke="black" points="1181.44,-214.8 1072.56,-214.8 1072.56,-178.8 1181.44,-178.8 1181.44,-214.8"/>
<text text-anchor="middle" x="1127" y="-192.6" font-family="Times,serif" font-size="14.00">AppComponent </text>
</g>
<!-- AppModule&#45;&gt;AppComponent  -->
<g id="edge13" class="edge">
<title>AppModule&#45;&gt;AppComponent </title>
<path fill="none" stroke="black" stroke-dasharray="1,5" d="M1127,-149.91C1127,-149.91 1127,-168.79 1127,-168.79"/>
<polygon fill="black" stroke="black" points="1123.5,-168.79 1127,-178.79 1130.5,-168.79 1123.5,-168.79"/>
</g>
<!-- AppRoutingModule -->
<g id="node13" class="node">
<title>AppRoutingModule</title>
<polygon fill="#8dd3c7" stroke="black" points="348.27,-84.8 345.27,-88.8 324.27,-88.8 321.27,-84.8 219.73,-84.8 219.73,-48.8 348.27,-48.8 348.27,-84.8"/>
<text text-anchor="middle" x="284" y="-62.6" font-family="Times,serif" font-size="14.00">AppRoutingModule</text>
</g>
<!-- AppRoutingModule&#45;&gt;AppModule -->
<g id="edge12" class="edge">
<title>AppRoutingModule&#45;&gt;AppModule</title>
<path fill="none" stroke="black" d="M284,-84.84C284,-106.46 284,-139.8 284,-139.8 284,-139.8 1075.2,-139.8 1075.2,-139.8"/>
<polygon fill="black" stroke="black" points="1075.2,-143.3 1085.2,-139.8 1075.2,-136.3 1075.2,-143.3"/>
</g>
<!-- UserSettingService -->
<g id="node15" class="node">
<title>UserSettingService</title>
<ellipse fill="#fdb462" stroke="black" cx="110" cy="-66.8" rx="85.67" ry="18"/>
<text text-anchor="middle" x="110" y="-62.6" font-family="Times,serif" font-size="14.00">UserSettingService</text>
</g>
<!-- UserSettingService&#45;&gt;AppModule -->
<g id="edge14" class="edge">
<title>UserSettingService&#45;&gt;AppModule</title>
<path fill="none" stroke="black" d="M110,-84.89C110,-107.93 110,-144.8 110,-144.8 110,-144.8 1075.24,-144.8 1075.24,-144.8"/>
<polygon fill="black" stroke="black" points="1075.24,-148.3 1085.24,-144.8 1075.24,-141.3 1075.24,-148.3"/>
</g>
</g>
</svg>
