<?xml version="1.0" encoding="UTF-8" standalone="no"?>
<!DOCTYPE svg PUBLIC "-//W3C//DTD SVG 1.1//EN"
 "http://www.w3.org/Graphics/SVG/1.1/DTD/svg11.dtd">
<!-- Generated by graphviz version 2.47.3 (20210619.1520)
 -->
<!-- Title: dependencies Pages: 1 -->
<svg width="2196pt" height="247pt"
 viewBox="0.00 0.00 2196.00 246.80" xmlns="http://www.w3.org/2000/svg" xmlns:xlink="http://www.w3.org/1999/xlink">
<g id="graph0" class="graph" transform="scale(1 1) rotate(0) translate(4 242.8)">
<title>dependencies</title>
<polygon fill="white" stroke="transparent" points="-4,4 -4,-242.8 2192,-242.8 2192,4 -4,4"/>
<text text-anchor="middle" x="1094" y="-8.2" font-family="sans-serif" font-size="14.00">dependencies</text>
<g id="clust1" class="cluster">
<title>cluster_AppModule</title>
<polygon fill="none" stroke="black" stroke-dasharray="1,5" points="8,-32.8 8,-230.8 2180,-230.8 2180,-32.8 8,-32.8"/>
</g>
<g id="clust14" class="cluster">
<title>cluster_AppModule_imports</title>
<polygon fill="none" stroke="black" points="2028,-40.8 2028,-92.8 2172,-92.8 2172,-40.8 2028,-40.8"/>
</g>
<g id="clust16" class="cluster">
<title>cluster_AppModule_bootstrap</title>
<polygon fill="none" stroke="black" points="992,-170.8 992,-222.8 1116,-222.8 1116,-170.8 992,-170.8"/>
</g>
<g id="clust17" class="cluster">
<title>cluster_AppModule_providers</title>
<polygon fill="none" stroke="black" points="1832,-40.8 1832,-92.8 2020,-92.8 2020,-40.8 1832,-40.8"/>
</g>
<g id="clust2" class="cluster">
<title>cluster_AppModule_declarations</title>
<polygon fill="none" stroke="black" points="16,-40.8 16,-92.8 1824,-92.8 1824,-40.8 16,-40.8"/>
</g>
<!-- AppComponent -->
<g id="node1" class="node">
<title>AppComponent</title>
<polygon fill="#ffffb3" stroke="black" points="1815.94,-84.8 1710.06,-84.8 1710.06,-48.8 1815.94,-48.8 1815.94,-84.8"/>
<text text-anchor="middle" x="1763" y="-62.6" font-family="Times,serif" font-size="14.00">AppComponent</text>
</g>
<!-- AppModule -->
<g id="node12" class="node">
<title>AppModule</title>
<polygon fill="#8dd3c7" stroke="black" points="1095.66,-149.8 1092.66,-153.8 1071.66,-153.8 1068.66,-149.8 1012.34,-149.8 1012.34,-113.8 1095.66,-113.8 1095.66,-149.8"/>
<text text-anchor="middle" x="1054" y="-127.6" font-family="Times,serif" font-size="14.00">AppModule</text>
</g>
<!-- AppComponent&#45;&gt;AppModule -->
<g id="edge1" class="edge">
<title>AppComponent&#45;&gt;AppModule</title>
<path fill="none" stroke="black" d="M1763,-85.02C1763,-105.17 1763,-134.8 1763,-134.8 1763,-134.8 1105.7,-134.8 1105.7,-134.8"/>
<polygon fill="black" stroke="black" points="1105.7,-131.3 1095.7,-134.8 1105.7,-138.3 1105.7,-131.3"/>
</g>
<!-- CurrencySymbolComponent -->
<g id="node2" class="node">
<title>CurrencySymbolComponent</title>
<polygon fill="#ffffb3" stroke="black" points="1692.48,-84.8 1515.52,-84.8 1515.52,-48.8 1692.48,-48.8 1692.48,-84.8"/>
<text text-anchor="middle" x="1604" y="-62.6" font-family="Times,serif" font-size="14.00">CurrencySymbolComponent</text>
</g>
<!-- CurrencySymbolComponent&#45;&gt;AppModule -->
<g id="edge2" class="edge">
<title>CurrencySymbolComponent&#45;&gt;AppModule</title>
<path fill="none" stroke="black" d="M1604,-85.02C1604,-103.63 1604,-129.8 1604,-129.8 1604,-129.8 1105.79,-129.8 1105.79,-129.8"/>
<polygon fill="black" stroke="black" points="1105.79,-126.3 1095.79,-129.8 1105.79,-133.3 1105.79,-126.3"/>
</g>
<!-- DailyRevenuesComponent -->
<g id="node3" class="node">
<title>DailyRevenuesComponent</title>
<polygon fill="#ffffb3" stroke="black" points="1497.36,-84.8 1330.64,-84.8 1330.64,-48.8 1497.36,-48.8 1497.36,-84.8"/>
<text text-anchor="middle" x="1414" y="-62.6" font-family="Times,serif" font-size="14.00">DailyRevenuesComponent</text>
</g>
<!-- DailyRevenuesComponent&#45;&gt;AppModule -->
<g id="edge3" class="edge">
<title>DailyRevenuesComponent&#45;&gt;AppModule</title>
<path fill="none" stroke="black" d="M1414,-84.83C1414,-101.86 1414,-124.8 1414,-124.8 1414,-124.8 1106,-124.8 1106,-124.8"/>
<polygon fill="black" stroke="black" points="1106,-121.3 1096,-124.8 1106,-128.3 1106,-121.3"/>
</g>
<!-- DropdownButtonComponent -->
<g id="node4" class="node">
<title>DropdownButtonComponent</title>
<polygon fill="#ffffb3" stroke="black" points="1312.82,-84.8 1133.18,-84.8 1133.18,-48.8 1312.82,-48.8 1312.82,-84.8"/>
<text text-anchor="middle" x="1223" y="-62.6" font-family="Times,serif" font-size="14.00">DropdownButtonComponent</text>
</g>
<!-- DropdownButtonComponent&#45;&gt;AppModule -->
<g id="edge4" class="edge">
<title>DropdownButtonComponent&#45;&gt;AppModule</title>
<path fill="none" stroke="black" d="M1223,-85.04C1223,-100.37 1223,-119.8 1223,-119.8 1223,-119.8 1105.78,-119.8 1105.78,-119.8"/>
<polygon fill="black" stroke="black" points="1105.78,-116.3 1095.78,-119.8 1105.78,-123.3 1105.78,-116.3"/>
</g>
<!-- HeaderComponent -->
<g id="node5" class="node">
<title>HeaderComponent</title>
<polygon fill="#ffffb3" stroke="black" points="1114.74,-84.8 993.26,-84.8 993.26,-48.8 1114.74,-48.8 1114.74,-84.8"/>
<text text-anchor="middle" x="1054" y="-62.6" font-family="Times,serif" font-size="14.00">HeaderComponent</text>
</g>
<!-- HeaderComponent&#45;&gt;AppModule -->
<g id="edge5" class="edge">
<title>HeaderComponent&#45;&gt;AppModule</title>
<path fill="none" stroke="black" d="M1054,-84.91C1054,-84.91 1054,-103.79 1054,-103.79"/>
<polygon fill="black" stroke="black" points="1050.5,-103.79 1054,-113.79 1057.5,-103.79 1050.5,-103.79"/>
</g>
<!-- LogInComponent -->
<g id="node6" class="node">
<title>LogInComponent</title>
<polygon fill="#ffffb3" stroke="black" points="974.55,-84.8 859.45,-84.8 859.45,-48.8 974.55,-48.8 974.55,-84.8"/>
<text text-anchor="middle" x="917" y="-62.6" font-family="Times,serif" font-size="14.00">LogInComponent</text>
</g>
<!-- LogInComponent&#45;&gt;AppModule -->
<g id="edge6" class="edge">
<title>LogInComponent&#45;&gt;AppModule</title>
<path fill="none" stroke="black" d="M917,-85.04C917,-100.37 917,-119.8 917,-119.8 917,-119.8 1002.15,-119.8 1002.15,-119.8"/>
<polygon fill="black" stroke="black" points="1002.15,-123.3 1012.15,-119.8 1002.15,-116.3 1002.15,-123.3"/>
</g>
<!-- LogOutComponent -->
<g id="node7" class="node">
<title>LogOutComponent</title>
<polygon fill="#ffffb3" stroke="black" points="841.38,-84.8 716.62,-84.8 716.62,-48.8 841.38,-48.8 841.38,-84.8"/>
<text text-anchor="middle" x="779" y="-62.6" font-family="Times,serif" font-size="14.00">LogOutComponent</text>
</g>
<!-- LogOutComponent&#45;&gt;AppModule -->
<g id="edge7" class="edge">
<title>LogOutComponent&#45;&gt;AppModule</title>
<path fill="none" stroke="black" d="M779,-84.83C779,-101.86 779,-124.8 779,-124.8 779,-124.8 1002.23,-124.8 1002.23,-124.8"/>
<polygon fill="black" stroke="black" points="1002.23,-128.3 1012.23,-124.8 1002.23,-121.3 1002.23,-128.3"/>
</g>
<!-- MainPageComponent -->
<g id="node8" class="node">
<title>MainPageComponent</title>
<polygon fill="#ffffb3" stroke="black" points="699.09,-84.8 560.91,-84.8 560.91,-48.8 699.09,-48.8 699.09,-84.8"/>
<text text-anchor="middle" x="630" y="-62.6" font-family="Times,serif" font-size="14.00">MainPageComponent</text>
</g>
<!-- MainPageComponent&#45;&gt;AppModule -->
<g id="edge8" class="edge">
<title>MainPageComponent&#45;&gt;AppModule</title>
<path fill="none" stroke="black" d="M630,-85.02C630,-103.63 630,-129.8 630,-129.8 630,-129.8 1002.18,-129.8 1002.18,-129.8"/>
<polygon fill="black" stroke="black" points="1002.18,-133.3 1012.18,-129.8 1002.18,-126.3 1002.18,-133.3"/>
</g>
<!-- RevenuesTableComponent -->
<g id="node9" class="node">
<title>RevenuesTableComponent</title>
<polygon fill="#ffffb3" stroke="black" points="542.63,-84.8 375.37,-84.8 375.37,-48.8 542.63,-48.8 542.63,-84.8"/>
<text text-anchor="middle" x="459" y="-62.6" font-family="Times,serif" font-size="14.00">RevenuesTableComponent</text>
</g>
<!-- RevenuesTableComponent&#45;&gt;AppModule -->
<g id="edge9" class="edge">
<title>RevenuesTableComponent&#45;&gt;AppModule</title>
<path fill="none" stroke="black" d="M459,-85.02C459,-105.17 459,-134.8 459,-134.8 459,-134.8 1002.16,-134.8 1002.16,-134.8"/>
<polygon fill="black" stroke="black" points="1002.16,-138.3 1012.16,-134.8 1002.16,-131.3 1002.16,-138.3"/>
</g>
<!-- UserSettingsComponent -->
<g id="node10" class="node">
<title>UserSettingsComponent</title>
<polygon fill="#ffffb3" stroke="black" points="357.37,-84.8 204.63,-84.8 204.63,-48.8 357.37,-48.8 357.37,-84.8"/>
<text text-anchor="middle" x="281" y="-62.6" font-family="Times,serif" font-size="14.00">UserSettingsComponent</text>
</g>
<!-- UserSettingsComponent&#45;&gt;AppModule -->
<g id="edge10" class="edge">
<title>UserSettingsComponent&#45;&gt;AppModule</title>
<path fill="none" stroke="black" d="M281,-84.84C281,-106.46 281,-139.8 281,-139.8 281,-139.8 1002.17,-139.8 1002.17,-139.8"/>
<polygon fill="black" stroke="black" points="1002.17,-143.3 1012.17,-139.8 1002.17,-136.3 1002.17,-143.3"/>
</g>
<!-- WelcomePageComponent -->
<g id="node11" class="node">
<title>WelcomePageComponent</title>
<polygon fill="#ffffb3" stroke="black" points="186.18,-84.8 23.82,-84.8 23.82,-48.8 186.18,-48.8 186.18,-84.8"/>
<text text-anchor="middle" x="105" y="-62.6" font-family="Times,serif" font-size="14.00">WelcomePageComponent</text>
</g>
<!-- WelcomePageComponent&#45;&gt;AppModule -->
<g id="edge11" class="edge">
<title>WelcomePageComponent&#45;&gt;AppModule</title>
<path fill="none" stroke="black" d="M105,-84.89C105,-107.93 105,-144.8 105,-144.8 105,-144.8 1002.31,-144.8 1002.31,-144.8"/>
<polygon fill="black" stroke="black" points="1002.31,-148.3 1012.31,-144.8 1002.31,-141.3 1002.31,-148.3"/>
</g>
<!-- AppComponent  -->
<g id="node14" class="node">
<title>AppComponent </title>
<polygon fill="#80b1d3" stroke="black" points="1108.44,-214.8 999.56,-214.8 999.56,-178.8 1108.44,-178.8 1108.44,-214.8"/>
<text text-anchor="middle" x="1054" y="-192.6" font-family="Times,serif" font-size="14.00">AppComponent </text>
</g>
<!-- AppModule&#45;&gt;AppComponent  -->
<g id="edge13" class="edge">
<title>AppModule&#45;&gt;AppComponent </title>
<path fill="none" stroke="black" stroke-dasharray="1,5" d="M1054,-149.91C1054,-149.91 1054,-168.79 1054,-168.79"/>
<polygon fill="black" stroke="black" points="1050.5,-168.79 1054,-178.79 1057.5,-168.79 1050.5,-168.79"/>
</g>
<!-- AppRoutingModule -->
<g id="node13" class="node">
<title>AppRoutingModule</title>
<polygon fill="#8dd3c7" stroke="black" points="2164.27,-84.8 2161.27,-88.8 2140.27,-88.8 2137.27,-84.8 2035.73,-84.8 2035.73,-48.8 2164.27,-48.8 2164.27,-84.8"/>
<text text-anchor="middle" x="2100" y="-62.6" font-family="Times,serif" font-size="14.00">AppRoutingModule</text>
</g>
<!-- AppRoutingModule&#45;&gt;AppModule -->
<g id="edge12" class="edge">
<title>AppRoutingModule&#45;&gt;AppModule</title>
<path fill="none" stroke="black" d="M2100,-84.89C2100,-107.93 2100,-144.8 2100,-144.8 2100,-144.8 1105.97,-144.8 1105.97,-144.8"/>
<polygon fill="black" stroke="black" points="1105.97,-141.3 1095.97,-144.8 1105.97,-148.3 1105.97,-141.3"/>
</g>
<!-- UserSettingService -->
<g id="node15" class="node">
<title>UserSettingService</title>
<ellipse fill="#fdb462" stroke="black" cx="1926" cy="-66.8" rx="85.67" ry="18"/>
<text text-anchor="middle" x="1926" y="-62.6" font-family="Times,serif" font-size="14.00">UserSettingService</text>
</g>
<!-- UserSettingService&#45;&gt;AppModule -->
<g id="edge14" class="edge">
<title>UserSettingService&#45;&gt;AppModule</title>
<path fill="none" stroke="black" d="M1926,-84.84C1926,-106.46 1926,-139.8 1926,-139.8 1926,-139.8 1105.76,-139.8 1105.76,-139.8"/>
<polygon fill="black" stroke="black" points="1105.76,-136.3 1095.76,-139.8 1105.76,-143.3 1105.76,-136.3"/>
</g>
</g>
</svg>
